<svg width="130" height="130" viewBox="0 0 130 130" fill="none" xmlns="http://www.w3.org/2000/svg">
<g clip-path="url(#clip0_221_274)">
<path d="M13.9277 13.9277H111.936" stroke="white" stroke-width="1.82"/>
<path d="M13 111.008H34.5299" stroke="white" stroke-width="1.82"/>
<path d="M13.9258 111.936V12.9988" stroke="white" stroke-width="1.82"/>
<path d="M111.936 57.0254V13.0001" stroke="white" stroke-width="1.82"/>
<path d="M87.4237 68.639H89.4116V61.7544H92.185V59.8965H84.6504V61.7544H87.4237V68.639Z" fill="white"/>
<path d="M102.702 68.639H104.69V59.8965H102.702V63.2548H99.2784V59.8965H97.2959V68.639H99.2784V65.1182H102.702V68.639Z" fill="white"/>
<path d="M110.476 68.639H116.358V66.9544H112.447V65.0423H115.881V63.3794H112.447V61.5702H116.217V59.8965H110.476V68.639Z" fill="white"/>
<path d="M53.7667 86.1634C55.8412 86.1634 57.1142 85.1776 57.1142 83.5309C57.1142 82.1442 56.2042 81.3209 54.0321 80.8063C52.6942 80.4921 52.2337 80.1563 52.2337 79.6201C52.2337 79.0459 52.7429 78.6938 53.5825 78.6938C54.4925 78.6938 55.045 79.1705 55.045 79.9559H56.9517C56.9517 78.1955 55.63 77.0742 53.5554 77.0742C51.5458 77.0742 50.2946 78.0601 50.2946 79.658C50.2946 81.0826 51.2587 81.933 53.3062 82.3663C54.5412 82.6317 55.1046 82.9946 55.1046 83.6067C55.1046 84.1917 54.5792 84.5276 53.7558 84.5276C52.7917 84.5276 52.1687 84.0401 52.1687 83.2059H50.2188C50.2188 85.0151 51.5729 86.1634 53.7667 86.1634Z" fill="white"/>
<path d="M66.5597 86.1634C69.2951 86.1634 71.2343 84.2892 71.2343 81.6188C71.2343 78.943 69.2951 77.0742 66.5597 77.0742C63.8243 77.0742 61.9014 78.943 61.9014 81.6188C61.9014 84.2892 63.8243 86.1634 66.5597 86.1634ZM63.9272 81.6188C63.9272 80.0426 65.0105 78.9592 66.5597 78.9592C68.1251 78.9592 69.1976 80.0426 69.1976 81.6188C69.1976 83.1896 68.1251 84.2784 66.5597 84.2784C65.0105 84.2784 63.9272 83.1896 63.9272 81.6188Z" fill="white"/>
<path d="M80.5161 86.1634C82.8127 86.1634 84.6002 84.7659 85.039 82.6426H82.9915C82.6286 83.6392 81.7023 84.2784 80.554 84.2784C79.0644 84.2784 78.019 83.1896 78.019 81.6188C78.019 80.0426 79.0807 78.9592 80.5648 78.9592C81.6752 78.9592 82.5907 79.5551 82.9265 80.5192H84.974C84.4757 78.423 82.7261 77.0742 80.5052 77.0742C77.8565 77.0742 75.9932 78.943 75.9932 81.6188C75.9932 84.2892 77.8565 86.1634 80.5161 86.1634Z" fill="white"/>
<path d="M90.2744 85.9898H92.2569V77.2473H90.2744V85.9898Z" fill="white"/>
<path d="M97.1094 85.9898H99.2327L99.8177 84.4786H103.29L103.88 85.9898H106.004L102.531 77.2473H100.581L97.1094 85.9898ZM100.332 82.9186L101.556 79.7173L102.791 82.9186H100.332Z" fill="white"/>
<path d="M110.851 85.9898H116.657V84.1265H112.833V77.2473H110.851V85.9898Z" fill="white"/>
<path d="M36.2812 103.338H38.2637V100.901H39.7046C41.8117 100.901 43.1767 99.6657 43.1767 97.7536C43.1767 95.8307 41.8117 94.5957 39.7046 94.5957H36.2812V103.338ZM38.2529 99.189V96.329H39.5421C40.5767 96.329 41.1508 96.8545 41.1508 97.7699C41.1508 98.6799 40.5767 99.189 39.5421 99.189H38.2529Z" fill="white"/>
<path d="M48.2744 103.338H50.2569V100.614H51.5677L53.1332 103.338H55.4298L53.6207 100.305C54.6661 99.839 55.2782 98.8911 55.2782 97.6074C55.2782 95.744 54.0052 94.5957 52.0065 94.5957H48.2744V103.338ZM50.2352 98.9399V96.2911H51.7465C52.7215 96.2911 53.2686 96.7678 53.2686 97.6182C53.2686 98.4686 52.7215 98.9399 51.7465 98.9399H50.2352Z" fill="white"/>
<path d="M64.8995 103.514C67.635 103.514 69.5741 101.64 69.5741 98.9696C69.5741 96.2938 67.635 94.425 64.8995 94.425C62.1641 94.425 60.2412 96.2938 60.2412 98.9696C60.2412 101.64 62.1641 103.514 64.8995 103.514ZM62.267 98.9696C62.267 97.3934 63.3504 96.31 64.8995 96.31C66.465 96.31 67.5375 97.3934 67.5375 98.9696C67.5375 100.54 66.465 101.629 64.8995 101.629C63.3504 101.629 62.267 100.54 62.267 98.9696Z" fill="white"/>
<path d="M74.2559 103.338H75.6696C77.8525 103.338 78.9792 102.163 78.9792 100.142V94.5957H76.9804V99.9907C76.9804 100.966 76.6067 101.475 75.545 101.475H74.2559V103.338Z" fill="white"/>
<path d="M84.7412 103.338H90.6237V101.654H86.7129V99.7415H90.147V98.0786H86.7129V96.2695H90.4829V94.5957H84.7412V103.338Z" fill="white"/>
<path d="M100.005 103.514C102.302 103.514 104.09 102.117 104.528 99.9934H102.481C102.118 100.99 101.192 101.629 100.043 101.629C98.5537 101.629 97.5083 100.54 97.5083 98.9696C97.5083 97.3934 98.5699 96.31 100.054 96.31C101.165 96.31 102.08 96.9059 102.416 97.87H104.463C103.965 95.7738 102.215 94.425 99.9945 94.425C97.3458 94.425 95.4824 96.2938 95.4824 98.9696C95.4824 101.64 97.3458 103.514 100.005 103.514Z" fill="white"/>
<path d="M111.861 103.338H113.849V96.4536H116.622V94.5957H109.088V96.4536H111.861V103.338Z" fill="white"/>
<path d="M46.9355 112.616H49.0318V112.22H47.358V111.093H48.8585V110.703H47.358V109.642H48.983V109.246H46.9355V112.616Z" fill="white"/>
<path d="M50.9287 112.616H51.3512V110.032L52.467 111.722H52.8137L53.9295 110.037V112.616H54.3575V109.246H53.962L52.6458 111.245L51.3241 109.246H50.9287V112.616Z" fill="white"/>
<path d="M56.4277 112.616H56.8502V111.511H57.5652C58.329 111.511 58.8219 111.072 58.8219 110.378C58.8219 109.685 58.329 109.246 57.5652 109.246H56.4277V112.616ZM56.8502 111.115V109.647H57.5598C58.1015 109.647 58.3886 109.902 58.3886 110.384C58.3886 110.861 58.1015 111.115 57.5598 111.115H56.8502Z" fill="white"/>
<path d="M62.1225 112.679C63.1517 112.679 63.8721 111.953 63.8721 110.929C63.8721 109.9 63.1517 109.18 62.1225 109.18C61.0988 109.18 60.3838 109.9 60.3838 110.929C60.3838 111.953 61.0988 112.679 62.1225 112.679ZM60.8171 110.929C60.8171 110.144 61.348 109.602 62.1225 109.602C62.9025 109.602 63.4334 110.144 63.4334 110.929C63.4334 111.715 62.9025 112.251 62.1225 112.251C61.348 112.251 60.8171 111.715 60.8171 110.929Z" fill="white"/>
<path d="M66.4223 112.616H66.8177L67.8252 109.886L68.3831 111.386L68.8435 112.616H69.239L70.3331 109.246H69.8944L69.0277 111.944L68.031 109.246H67.6302L66.6335 111.938L66.2381 110.698L65.7723 109.246H65.3281L66.4223 112.616Z" fill="white"/>
<path d="M72.0098 112.616H74.106V112.22H72.4323V111.093H73.9327V110.703H72.4323V109.642H74.0573V109.246H72.0098V112.616Z" fill="white"/>
<path d="M76.002 112.616H76.4245V111.408H77.1665L77.9899 112.616H78.499L77.654 111.364C78.1415 111.245 78.4449 110.871 78.4449 110.33C78.4449 109.658 77.9845 109.246 77.2857 109.246H76.002V112.616ZM76.4245 111.001V109.647H77.237C77.7299 109.647 78.0115 109.902 78.0115 110.33C78.0115 110.758 77.7299 111.001 77.237 111.001H76.4245Z" fill="white"/>
<path d="M83.7753 112.679C84.512 112.679 84.9887 112.316 84.9887 111.726C84.9887 111.233 84.6582 110.935 83.7916 110.723C83.1362 110.561 82.9195 110.388 82.9195 110.111C82.9195 109.786 83.212 109.586 83.6941 109.586C84.187 109.586 84.4957 109.835 84.5066 110.241H84.9237C84.9182 109.586 84.447 109.18 83.6941 109.18C82.9574 109.18 82.4862 109.543 82.4862 110.111C82.4862 110.631 82.8599 110.918 83.6887 111.119C84.2953 111.26 84.5499 111.428 84.5499 111.742C84.5499 112.072 84.252 112.273 83.7753 112.273C83.2499 112.273 82.8816 112.013 82.8762 111.579H82.4482C82.4537 112.24 82.9682 112.679 83.7753 112.679Z" fill="white"/>
<path d="M88.3862 112.679C89.4154 112.679 90.1358 111.953 90.1358 110.929C90.1358 109.9 89.4154 109.18 88.3862 109.18C87.3625 109.18 86.6475 109.9 86.6475 110.929C86.6475 111.953 87.3625 112.679 88.3862 112.679ZM87.0808 110.929C87.0808 110.144 87.6116 109.602 88.3862 109.602C89.1662 109.602 89.697 110.144 89.697 110.929C89.697 111.715 89.1662 112.251 88.3862 112.251C87.6116 112.251 87.0808 111.715 87.0808 110.929Z" fill="white"/>
<path d="M93.4821 112.679C94.3 112.679 94.9662 112.181 95.1667 111.428H94.7225C94.5492 111.937 94.0725 112.251 93.4983 112.251C92.7454 112.251 92.2146 111.709 92.2146 110.929C92.2146 110.149 92.7454 109.602 93.4983 109.602C94.0563 109.602 94.5167 109.9 94.69 110.388H95.1396C94.9175 109.646 94.2783 109.18 93.4821 109.18C92.4908 109.18 91.7812 109.911 91.7812 110.929C91.7812 111.942 92.4908 112.679 93.4821 112.679Z" fill="white"/>
<path d="M97.0117 112.616H97.4342V109.246H97.0117V112.616Z" fill="white"/>
<path d="M99.5059 112.616H101.602V112.22H99.9284V111.093H101.429V110.703H99.9284V109.642H101.553V109.246H99.5059V112.616Z" fill="white"/>
<path d="M104.312 112.616H104.734V109.647H105.872V109.246H103.169V109.647H104.312V112.616Z" fill="white"/>
<path d="M108.478 112.616H108.89V111.402L110.158 109.246H109.681L108.69 110.947L108.251 110.189L107.704 109.246H107.211L108.478 111.402V112.616Z" fill="white"/>
<mask id="mask0_221_274" style="mask-type:luminance" maskUnits="userSpaceOnUse" x="22" y="23" width="43" height="43">
<path d="M22.3555 23.1438H64.8086V65.5969H22.3555V23.1438Z" fill="white"/>
</mask>
<g mask="url(#mask0_221_274)">
<path d="M22.3555 23.1438H64.8086V65.5969H22.3555V23.1438Z" fill="white"/>
</g>
<mask id="mask1_221_274" style="mask-type:luminance" maskUnits="userSpaceOnUse" x="29" y="25" width="27" height="39">
<path d="M29.8125 25.6548H55.8125V63.0948H29.8125V25.6548Z" fill="white"/>
</mask>
<g mask="url(#mask1_221_274)">
<mask id="mask2_221_274" style="mask-type:luminance" maskUnits="userSpaceOnUse" x="20" y="22" width="45" height="45">
<path d="M52.5654 22.2334L64.8165 54.2933L32.7566 66.5431L20.5068 34.4832L52.5654 22.2334Z" fill="white"/>
</mask>
<g mask="url(#mask2_221_274)">
<mask id="mask3_221_274" style="mask-type:luminance" maskUnits="userSpaceOnUse" x="20" y="22" width="45" height="45">
<path d="M64.8074 54.2725L52.5576 22.2126L20.499 34.4624L32.7488 66.5223L64.8074 54.2725Z" fill="white"/>
</mask>
<g mask="url(#mask3_221_274)">
<path fill-rule="evenodd" clip-rule="evenodd" d="M42.4285 39.6163C43.7447 40.2054 45.1991 40.8554 46.514 41.4431C49.3022 42.6903 50.4709 46.4494 48.9312 49.8931C47.7016 52.6447 46.1917 56.0207 44.9621 58.7723C43.4225 62.2173 39.842 63.8532 37.0538 62.606C35.7376 62.0183 34.2832 61.3683 32.9683 60.7792C30.1801 59.5334 29.0114 55.7742 30.5511 52.3306C31.4232 50.3779 32.4375 48.1096 33.3921 45.9741C33.6386 45.423 34.2886 45.1738 34.8397 45.4216C35.3922 45.6667 35.6401 46.3167 35.3922 46.8679C34.4389 49.0034 33.4246 51.2716 32.5512 53.2243C31.5518 55.4614 32.0515 57.9693 33.862 58.7791L37.9476 60.6059C39.7581 61.4157 41.9613 60.1143 42.962 57.8786C44.1903 55.1269 45.7015 51.7496 46.9297 48.9993C47.9305 46.7622 47.4308 44.253 45.6203 43.4432L41.5347 41.6178C40.9836 41.3699 40.7358 40.7213 40.9822 40.1702C41.2287 39.6177 41.8774 39.3698 42.4285 39.6163ZM43.0501 49.193C41.7338 48.6039 40.2808 47.9539 38.9645 47.3662C36.1763 46.119 35.0077 42.3598 36.5474 38.9162C37.7783 36.1645 39.2868 32.7886 40.5178 30.0369C42.0575 26.5919 45.6379 24.9574 48.4261 26.2033C49.741 26.791 51.1954 27.441 52.5116 28.03C55.2999 29.2759 56.4685 33.035 54.9288 36.48C54.0554 38.4314 53.0411 40.6996 52.0864 42.8352C51.84 43.3877 51.1913 43.6355 50.6388 43.389C50.0863 43.1425 49.8385 42.4939 50.0863 41.9414C51.041 39.8059 52.0553 37.5377 52.9274 35.5849C53.9281 33.3492 53.4284 30.8399 51.6165 30.0302L47.531 28.2034C45.7205 27.3936 43.5172 28.6949 42.5179 30.9307C41.2883 33.6823 39.7784 37.0596 38.5488 39.8099C37.5481 42.047 38.0478 44.5563 39.8583 45.3661L43.9438 47.1929C44.4963 47.4393 44.7441 48.088 44.4977 48.6391C44.2512 49.1916 43.6012 49.4394 43.0501 49.193Z" fill="#17D8E2"/>
</g>
</g>
</g>
</g>
<defs>
<clipPath id="clip0_221_274">
<rect width="130" height="130" fill="white"/>
</clipPath>
</defs>
</svg>
