<svg width="403" height="475" viewBox="0 0 403 475" fill="none" xmlns="http://www.w3.org/2000/svg">
<path d="M212.956 262.322C246.823 293.111 246.823 348.511 216.034 382.367L311.456 474.7L422.267 363.889C425.345 366.967 428.434 373.122 431.5 376.2C459.2 400.822 499.223 400.822 523.834 376.2C548.456 351.578 548.456 311.567 523.834 286.945C520.756 280.778 514.6 277.711 508.445 274.634L619.256 166.9L508.445 56.0891C511.523 53.0114 514.612 49.9225 520.756 46.8558C545.378 22.2336 545.378 -17.7775 520.756 -42.3998C493.056 -67.022 453.034 -67.022 428.423 -42.3998C425.345 -39.322 422.256 -36.2331 419.189 -33.1664L308.378 -143.978L0.578125 163.823L96.0004 259.245C129.867 228.456 182.189 228.456 212.956 262.322Z" fill="black"/>
</svg>
